<svg width="429" height="451" viewBox="0 0 429 451" fill="none" xmlns="http://www.w3.org/2000/svg">
<path d="M1 383.719C5.1249 384.425 13.3954 387.268 21.6971 391.897C29.4986 396.247 39.6373 399.37 48.6437 402.951C56.8087 406.198 65.2158 410.06 75.9219 413.994C88.0961 418.468 96.3081 421.478 104.61 424.685C113.452 428.101 121.182 432.168 129.483 435.023C137.785 437.877 147.424 439.31 156.43 441.437C158.513 442.153 160.565 442.859 162.649 443.575C164.732 444.291 166.784 444.997 173.044 445.724" stroke="white" stroke-width="2" stroke-linecap="round"/>
<path d="M168.898 450C173.023 449.294 185.398 445.04 197.534 441.458C207.105 438.634 216.531 433.622 224.833 430.415C233.388 427.11 241.405 425.07 249.707 421.863C259.694 418.004 271.793 414.379 280.799 411.525C288.981 408.932 297.371 407.965 307.393 404.758C316.708 401.777 324.318 397.275 332.619 394.42C340.921 391.566 349.192 390.133 357.493 387.653C359.576 386.584 361.628 385.173 363.712 383.74C365.795 382.308 367.847 380.897 372.034 379.443" stroke="white" stroke-width="2" stroke-linecap="round"/>
<path d="M3.07269 381.581C5.12478 378.737 13.3953 374.483 21.3549 370.196C29.3807 365.873 37.5643 356.694 48.9648 346.709C70.805 327.58 78.3574 319.619 85.9542 313.183C93.9698 306.393 102.526 299.649 110.828 293.94C119.13 288.232 127.4 282.544 135.702 276.836C144.003 271.127 152.274 265.44 160.576 261.153C168.877 254.728 177.148 250.473 185.449 244.764C187.533 243.332 189.585 241.921 191.699 240.467" stroke="white" stroke-width="2" stroke-linecap="round"/>
<path d="M195.845 240.467C200.654 241.172 215.785 245.427 227.248 251.136C239.217 257.097 253.137 261.121 263.864 266.102C275.154 271.346 287.007 279.637 295.309 283.571C303.888 287.637 313.249 293.876 323.281 298.89C336.656 305.575 345.046 308.159 353.348 312.788C361.149 317.138 369.92 318.849 378.221 321.704C386.523 325.264 394.794 329.54 403.095 332.394C405.178 333.11 407.23 333.816 413.49 334.543" stroke="white" stroke-width="2" stroke-linecap="round"/>
<path d="M369.961 381.581C374.086 380.17 382.356 375.894 390.658 371.265C398.691 366.786 407.23 361.654 415.532 355.945C417.615 354.513 419.667 353.102 421.75 351.669C423.833 350.237 425.886 348.825 428 345.233" stroke="white" stroke-width="2" stroke-linecap="round"/>
<path d="M50.7474 174.186C50.0634 182.717 48.6746 191.248 45.2338 200.869C40.3034 214.656 41.0881 225.457 39.6993 234.373C37.3295 249.587 32.0921 270.314 28.6512 281.764C25.1441 293.434 24.5056 302.429 23.1168 314.541C21.9082 325.082 18.2872 334.5 17.2404 351.936C16.2143 358.019 14.8256 362.317 13.7891 366.935C13.4368 369.437 13.4368 372.259 11.364 377.305" stroke="white" stroke-width="2" stroke-linecap="round"/>
<path d="M272.539 1C271.855 5.25481 270.466 13.7858 266.683 29.8001C263.596 42.868 262.879 54.4096 260.112 63.3255C256.939 73.5492 254.588 82.2049 251.479 90.7679C248.167 99.8885 242.856 107.862 239.384 116.425C235.915 124.981 231.787 133.519 229.02 142.082C226.253 150.645 223.496 159.176 222.449 167.739C221.26 177.467 216.573 186.972 214.51 195.535C212.447 204.103 211.059 212.629 208.292 221.192C205.525 229.755 204.136 236.169 203.794 240.435C203.452 242.583 202.768 244.7 202.063 249.019" stroke="white" stroke-width="2" stroke-linecap="round"/>
<path d="M56.9661 172.048C59.7022 168.498 74.8337 159.989 86.2964 154.248C99.9867 147.392 114.259 134.332 123.949 128.238C137.23 119.887 147.424 111.497 154.71 103.661C163 94.7443 174.37 83.7443 185.097 75.5019C193.816 68.8024 200.654 63.0475 208.251 56.6118C215.681 50.3175 224.823 48.765 233.124 44.1361C240.926 39.7859 249.696 36.6634 257.998 32.7293C262.133 30.2491 266.3 27.3841 270.093 24.1876C271.834 22.4023 273.202 20.2856 274.612 18.1047" stroke="white" stroke-width="2" stroke-linecap="round"/>
<path d="M270.466 18.1047C275.254 30.1422 287.712 50.1334 296.687 58.6965C305.015 66.6414 311.881 76.5175 318.12 84.3536C324.361 92.1921 331.241 99.3096 340.558 109.295C348.62 117.933 360.924 124.967 369.93 130.697C377.93 135.786 394.047 140.66 405.168 146.016C413.47 149.94 419.004 154.921 421.761 159.187C423.15 161.336 424.518 163.452 428 165.633" stroke="white" stroke-width="2" stroke-linecap="round"/>
<path d="M423.854 159.219C423.17 163.474 421.781 176.238 420.061 188.393C417.758 204.666 417.636 226.056 415.915 244.315C413.269 272.405 413.49 289.515 415.211 302.439C415.563 306.705 416.247 311.002 417.283 316.679C417.636 320.239 417.636 325.178 419.709 334.543" stroke="white" stroke-width="2" stroke-linecap="round"/>
</svg>
