<svg width="161" height="35" viewBox="0 0 161 35" fill="none" xmlns="http://www.w3.org/2000/svg">
<path d="M161 0V35H0V0H161ZM1 34H160V1H1V34Z" fill="white"/>
<path d="M143.845 23H140.965V11.56H143.845V16.04H147.765V11.56H150.645V23H147.765V18.392H143.845V23Z" fill="white"/>
<path d="M131.477 23H128.597V18.776L124.693 11.56H127.797L130.021 16.424H130.053L132.293 11.56H135.333L131.477 18.776V23Z" fill="white"/>
<path d="M115.621 23.256C112.629 23.256 110.373 21.736 110.373 19.112H113.285C113.285 20.44 114.293 20.936 115.589 20.936C116.661 20.936 117.205 20.504 117.205 19.912C117.205 18.936 116.069 18.68 114.485 18.2C112.501 17.592 110.725 16.824 110.725 14.776C110.725 12.28 112.677 11.304 115.141 11.304C117.813 11.304 119.909 12.712 119.989 15.032H117.077C116.949 14.152 116.245 13.624 115.141 13.624C114.277 13.624 113.669 13.912 113.669 14.568C113.669 15.336 114.309 15.592 115.765 16.024C117.925 16.664 120.149 17.272 120.149 19.64C120.149 21.832 118.485 23.256 115.621 23.256Z" fill="white"/>
<path d="M97.5344 23H94.6544V11.56H97.5344L101.534 18.36H101.566V11.56H104.446V23H101.566L97.5664 16.2H97.5344V23Z" fill="white"/>
<path d="M85.2473 23H82.2073L78.3993 11.56H81.5513L83.7113 19.576H83.7433L85.9193 11.56H88.9593L85.2473 23Z" fill="white"/>
<path d="M66.8169 23H63.9369V11.56H69.3289C71.8729 11.56 73.4089 12.744 73.4089 14.824C73.4089 16.424 72.5129 17.368 71.0889 17.688V17.72C73.9529 18.216 72.9129 22.648 73.5689 22.84V23H70.5769C70.0169 22.52 71.0569 19.016 68.6089 19.016H66.8169V23ZM66.8169 16.664H68.7689C69.9209 16.664 70.5289 16.248 70.5289 15.288C70.5289 14.328 69.9209 13.912 68.7689 13.912H66.8169V16.664Z" fill="white"/>
<path d="M57.38 23H54.5V11.56H57.38V23Z" fill="white"/>
<path d="M41.0212 23H38.1412V11.56H41.0212L45.0212 18.36H45.0532V11.56H47.9332V23H45.0532L41.0532 16.2H41.0212V23Z" fill="white"/>
<path d="M22.5181 23H19.7981V11.56H23.3181L25.6701 18.856H25.7021L28.0541 11.56H31.5741V23H28.8541V15.88H28.8221L26.6941 23H24.6781L22.5501 15.88H22.5181V23Z" fill="white"/>
<path d="M13.2412 23H10.3612V11.56H13.2412V23Z" fill="white"/>
</svg>
